<svg width="200" height="200" xmlns="http://www.w3.org/2000/svg">

 <g>
  <title>Layer 1</title>
  <path d="m38,103.5c-1,0 -0.61732,-1.07612 -1,-2c-0.54119,-1.30656 -1,-2 -1,-3c0,-1 0,-3 0,-4c0,-2 0.48626,-3.82375 1,-6c0.45951,-1.9465 -0.48055,-4.03873 0,-7c0.50654,-3.12144 1,-5 1,-7c0,-3 0.48626,-4.82375 1,-7c0.68926,-2.91975 1.1731,-5.85273 2,-7c1.30745,-1.81399 2.41886,-3.41886 4,-5c3.16228,-3.16228 6.07844,-3.78985 9,-5c4.13171,-1.71141 7.133,-2.5695 11,-4c2.09718,-0.77579 6.05165,-1.35927 10,-2c3.12144,-0.50654 7.0146,-2.70439 10,-3c5.0742,-0.50245 8,-1 12,-1c4,0 7,0 11,0c3,0 5.82375,0.48626 8,1c2.91975,0.68926 6.15224,0.23463 8,1c2.61313,1.08239 5,3 7,4c2,1 4.1731,1.85273 5,3c1.30745,1.81399 1.08052,3.48692 3,6c2.18855,2.86536 4.48625,4.82375 5,7c0.4595,1.9465 1,5 2,8c1,3 1.49345,4.87856 2,8c0.48055,2.96127 1,7 1,9c0,3 0,6 0,8c0,2 1,5 1,7c0,2 0,4 0,6c0,2 0.22975,5.02675 0,6c-0.51375,2.17625 -0.51945,6.03873 -1,9c-0.50655,3.12144 -1.19028,5.88152 -3,9c-1.12234,1.93399 -2,7 -3,9c-2,4 -3.513,6.59399 -5,9c-1.66251,2.68999 -3.52016,4.32367 -5,6c-2.38617,2.703 -3.93414,4.14429 -6,5c-2.92156,1.21014 -5.03873,2.51945 -8,3c-3.12144,0.50655 -5.87856,1.49345 -9,2c-3.94835,0.64073 -7,0 -10,0c-3,0 -6.133,-0.5695 -10,-2c-4.19435,-1.55159 -8.19892,-2.53236 -11,-4c-4.42889,-2.32053 -9.19577,-5.64886 -13,-8c-4.25325,-2.62866 -8.07278,-5.8819 -13,-9c-3.04673,-1.92807 -7.132,-6.75531 -11,-9c-3.11848,-1.80972 -4.19028,-4.88152 -6,-8c-2.24469,-3.868 -3.228,-8.27709 -5,-12c-2.14886,-4.51469 -3.78985,-9.07844 -5,-12c-1.71141,-4.13171 -2.48626,-8.82375 -3,-11c-0.45951,-1.9465 -1,-5 -1,-7c0,-2 0,-3 0,-5c0,-1 0,-3 0,-4c0,-1 0.61732,-1.07612 1,-2c0.5412,-1.30656 2,-2 3,-2l0,-1l1,0" id="svg_12" stroke="#000" fill="none"/>
  <path d="m60,76.5c0,-1 -1,-1 -1,-2c0,-1 0,-2 0,-3c0,-1 0.61732,-1.07612 1,-2c0.54119,-1.30656 2.02675,-1.77025 3,-2c2.17625,-0.51374 2.69344,-1.4588 4,-2c1.84776,-0.76537 3,0 4,0c1,0 1.29289,0.29289 2,1c0.70711,0.70711 1,1 1,2c0,1 0.76537,3.15224 0,5c-0.5412,1.30656 -1.78985,3.07844 -3,6c-0.85571,2.06586 -3,5 -5,6c-2,1 -5.07612,0.61732 -6,1c-1.30656,0.5412 -2.45881,1.30656 -3,0c-0.38268,-0.92388 0,-2 0,-4c0,-2 -0.76537,-4.15224 0,-6c0.54119,-1.30656 2,-2 3,-3l0,-1l1,0l2,0" id="svg_13" stroke="#000" fill="none"/>
  <path d="m103,76.5c-1,-1 -1.4588,-1.69344 -2,-3c-0.38268,-0.92388 0.29289,-1.29289 1,-2c0.70711,-0.70711 0.29289,-1.29289 1,-2c1.41422,-1.41422 3,0 5,0c1,0 3,0 5,0c2,0 3.797,0.2565 5,1c2.68999,1.66251 4.76393,0.76393 7,3c2.23607,2.23607 2.5405,4.0535 3,6c0.51375,2.17625 1,4 1,5c0,2 -1,3 -2,4c-1,1 -1.88152,2.19028 -5,4c-1.934,1.12234 -3,1 -5,1c-2,0 -3.58578,-0.58578 -5,-2c-0.70711,-0.70711 -1,-1 -1,-2c0,-1 0,-2 0,-4l0,-2l1,-1l0,-1" id="svg_14" stroke="#000" fill="none"/>
  <path d="m68,142.5c0,0 0,-1 0,-2c0,-1 0,-2 0,-3c0,-1 -0.4595,-3.0535 0,-5c0.51374,-2.17625 1.5405,-4.0535 2,-6c0.51374,-2.17625 3.49346,-2.87856 4,-6c0.16018,-0.98709 1,-2 2,-3c1,-1 2.07612,-2.61732 3,-3c1.30656,-0.5412 2.82375,-1.48626 5,-2c0.97325,-0.22975 3,0 5,0c3,0 4.15224,-0.76537 6,0c2.61313,1.08239 4.69344,2.4588 6,3c1.84776,0.76537 3,1 4,2c1,1 1.29289,2.29289 2,3c0.70711,0.70711 1.23463,2.15224 2,4c0.5412,1.30656 2.23463,2.15224 3,4c0.5412,1.30656 1,2 2,3l0,1l1,0l0,1" id="svg_15" stroke="#000" fill="none"/>
 </g>
</svg>